PathFileType  4	(X/Y/Z) C:\Users\antoi\Documents\MyRepositories\mobilecap\ResultsAnalysis
DataRate	CameraRate	NumFrames	NumMarkers	Units	OrigDataRate	OrigDataStartFrame	OrigNumFrames
100.0	100.0	4	51	mm	100.0	118	156
Frame#	Time	r_knee			r_shank_antsup			r_ankle			r_calc			r_5meta			r_toe			L_knee			L_shank_antsup			L_ankle			L_calc			L_5meta			L_toe			r_sh2			r_sh3			r_sh4			L_sh2			L_sh3			r_thigh1			r_thigh2			r_thigh3			r_thigh4			r_thigh5			L_thigh1			L_thigh2			L_thigh3			L_thigh4			r.ASIS			r.PSIS			L.ASIS			L.PSIS			C7			R_Shoulder			L_Shoulder			R_Sternum			L_Sternum			R_humerus			R_elbow_med			R_elbow_lat			R_forearm			R_wrist_radius			R_wrist_ulna			L_humerus			L_elbow_med			L_elbow_lat			L_forearm			L_wrist_radius			L_wrist_ulna			R_HJC			L_HJC			R_HJC_reg			L_HJC_reg			
		X1	Y1	Z1	X2	Y2	Z2	X3	Y3	Z3	X4	Y4	Z4	X5	Y5	Z5	X6	Y6	Z6	X7	Y7	Z7	X8	Y8	Z8	X9	Y9	Z9	X10	Y10	Z10	X11	Y11	Z11	X12	Y12	Z12	X13	Y13	Z13	X14	Y14	Z14	X15	Y15	Z15	X16	Y16	Z16	X17	Y17	Z17	X18	Y18	Z18	X19	Y19	Z19	X20	Y20	Z20	X21	Y21	Z21	X22	Y22	Z22	X23	Y23	Z23	X24	Y24	Z24	X25	Y25	Z25	X26	Y26	Z26	X27	Y27	Z27	X28	Y28	Z28	X29	Y29	Z29	X30	Y30	Z30	X31	Y31	Z31	X32	Y32	Z32	X33	Y33	Z33	X34	Y34	Z34	X35	Y35	Z35	X36	Y36	Z36	X37	Y37	Z37	X38	Y38	Z38	X39	Y39	Z39	X40	Y40	Z40	X41	Y41	Z41	X42	Y42	Z42	X43	Y43	Z43	X44	Y44	Z44	X45	Y45	Z45	X46	Y46	Z46	X47	Y47	Z47	X48	Y48	Z48	X49	Y49	Z49	X50	Y50	Z50	X51	Y51	Z51	

118	1.17000000	1216.77017	473.02771	-100.84718	1292.24425	383.66064	-116.06023	1307.31750	102.64440	-136.39172	1273.81366	52.77125	-189.22009	1430.49866	89.02804	-104.66059	1458.38055	124.36209	-145.11844	967.90270	473.34482	-420.30216	980.32214	367.97790	-370.64983	850.61064	94.94559	-378.51338	793.83581	62.98751	-333.63694	963.78942	36.21166	-380.32499	998.65580	51.27861	-323.76672	1313.37553	273.89693	-129.90090	1235.14551	364.45054	-68.67806	1240.70148	253.84683	-92.01648	940.01723	390.71292	-444.85584	910.60779	274.63472	-448.71469	1154.74008	777.56670	-97.06475	1209.70094	681.90109	-96.27777	1175.54049	635.37995	-57.83960	1061.22401	726.01164	-63.28750	1119.56471	624.36767	-59.54199	1107.43533	746.07407	-422.52056	1085.10531	611.48242	-417.29291	1008.15874	766.31892	-469.96278	980.31241	627.96510	-453.25982	1139.96409	913.90225	-134.16581	963.76131	965.07645	-201.58794	1155.22139	920.14632	-376.38211	965.38716	976.47429	-317.57772	1066.24154	1416.51799	-288.84808	1093.27685	1376.19160	-132.03421	1139.85533	1376.96754	-435.18390	1176.31573	1341.86519	-253.41129	1182.15330	1336.12455	-298.08852	1061.47751	1258.25872	-58.85373	935.46761	1093.39558	-113.52854	946.30772	1099.93201	-39.19840	951.84115	975.83162	-3.86784	949.10596	871.00112	6.98096	913.60500	878.42591	19.06290	1171.33940	1233.95972	-493.84929	1129.70905	1033.00115	-454.29373	1157.15843	1046.70114	-521.33058	1233.78975	979.44007	-527.46426	1307.14789	874.09114	-501.86434	1287.24821	858.68090	-523.21199	1049.22316	846.75148	-163.53224	1060.99980	851.24690	-352.48677	1072.03171	841.18926	-175.94225	1074.26513	856.85820	-335.38888	
119	1.18000000	1222.87672	470.18505	-99.27392	1302.25015	384.06121	-114.40798	1329.00754	103.88334	-135.31385	1297.85011	52.93550	-188.21370	1453.68175	94.77161	-104.21427	1479.85122	131.47458	-144.45971	973.17724	472.74690	-420.46575	984.51581	366.85697	-371.06175	851.10938	95.51556	-378.58978	794.06741	63.91541	-333.59663	963.80008	36.15976	-380.33833	998.78801	50.93736	-323.87068	1327.77785	275.13767	-128.26380	1245.53511	362.35001	-67.40062	1255.74760	252.13216	-91.05420	944.06128	390.29082	-444.94035	912.79771	274.70853	-448.83860	1164.14909	774.80639	-96.31628	1217.50172	678.15387	-94.95079	1182.19834	632.11451	-57.02187	1069.38440	724.60513	-63.73303	1126.00041	621.99629	-59.33555	1114.92709	744.47232	-423.60673	1091.77740	609.95983	-418.15211	1015.85368	765.36486	-470.46114	986.78027	627.33644	-453.51569	1150.30223	912.37728	-134.80348	973.71810	963.30901	-201.60016	1164.24805	918.67147	-377.39714	974.79141	974.90723	-317.54161	1075.98249	1415.17808	-285.03115	1102.33893	1373.39305	-128.55748	1150.24399	1377.25111	-431.42159	1185.97802	1340.18320	-249.91732	1191.85697	1334.85675	-294.61081	1070.05132	1254.95641	-56.56929	944.68979	1090.13981	-113.13364	954.55932	1096.57996	-38.61409	960.20077	972.45501	-3.57694	957.74082	867.59002	7.00356	922.01552	874.86726	18.73824	1182.29205	1234.88523	-491.06028	1140.69108	1033.65518	-453.29928	1168.74412	1047.69328	-519.90473	1246.43846	981.37229	-525.22741	1321.38318	877.25747	-498.83267	1302.07111	861.50682	-520.47208	1059.44702	845.13513	-163.93446	1070.29169	849.69425	-352.94346	1082.22926	839.29084	-176.46858	1083.70503	855.26052	-336.09320	
120	1.19000000	1229.20239	467.47104	-97.69019	1311.60842	384.02771	-112.59173	1348.26960	105.28648	-134.40603	1319.79555	53.00031	-187.66411	1474.29882	99.75408	-103.65092	1499.03056	137.64214	-143.47458	978.56676	472.08312	-420.65967	988.91620	365.73939	-371.46627	851.65006	96.12019	-378.65327	794.31076	64.91254	-333.54791	963.84142	36.10752	-380.35048	998.98118	50.57959	-324.04364	1341.03977	276.03774	-126.62026	1255.19420	360.10496	-66.16361	1269.49365	250.42587	-90.30075	948.24522	389.83531	-445.01658	915.14440	274.76775	-448.94804	1173.95971	772.33270	-95.79815	1225.75505	674.72322	-93.92134	1189.53889	629.25592	-56.26152	1078.15341	723.48460	-63.93841	1133.11414	619.97935	-58.95418	1122.55045	742.68980	-424.65267	1098.59698	608.28894	-419.03147	1023.68183	764.30875	-470.79299	993.38063	626.61423	-453.73705	1160.72410	910.75883	-135.42683	983.78300	961.44064	-201.61396	1173.44818	917.01863	-378.45656	984.41153	973.23054	-317.50291	1085.80652	1413.75605	-281.04137	1111.55077	1370.48612	-124.92306	1160.69443	1377.50211	-427.54255	1195.68543	1338.38771	-246.27493	1201.69389	1333.54694	-290.98374	1078.83326	1251.51996	-54.15838	954.18691	1086.71816	-112.56632	963.09180	1093.06053	-37.90622	968.90820	968.88908	-3.21290	966.79541	863.96791	7.05427	930.92094	871.05678	18.44162	1193.29381	1235.72759	-488.07513	1151.52394	1034.29017	-452.25066	1180.18197	1048.68044	-518.39158	1258.84442	983.22097	-522.94354	1335.27819	880.24480	-495.79628	1316.49477	864.20344	-517.69709	1069.77916	843.41936	-164.32711	1079.72540	848.00019	-353.38626	1092.48224	837.24068	-177.05709	1093.34765	853.50451	-336.90077	
121	1.20000000	1235.98925	464.98295	-96.19474	1320.52868	383.53186	-110.73345	1365.01823	106.45718	-133.61287	1339.28788	52.72517	-187.41303	1492.17040	103.57020	-102.94431	1515.80101	142.44695	-142.23097	984.03887	471.37770	-420.92662	993.55414	364.65107	-371.89538	852.24046	96.76487	-378.74238	794.57975	65.99898	-333.52732	963.90508	36.05373	-380.37385	999.22662	50.20369	-324.28349	1353.19200	276.44939	-125.03511	1264.30001	357.78577	-65.01916	1281.93833	248.68989	-89.72476	952.56930	389.35876	-445.11774	917.65480	274.82276	-449.08252	1184.18331	770.23429	-95.55138	1234.58506	671.76128	-93.26337	1197.75511	626.91459	-55.58441	1087.61657	722.65063	-63.87057	1141.10800	618.38115	-58.39094	1130.34374	740.74395	-425.62547	1105.54878	606.50020	-419.93215	1031.58735	763.16782	-470.89958	1000.10581	625.82747	-453.92968	1171.21927	909.10036	-135.99707	993.95119	959.50918	-201.64374	1182.85544	915.19162	-379.50506	994.26400	971.45429	-317.47516	1095.73751	1412.28518	-276.87555	1120.90980	1367.49118	-121.13194	1171.22713	1377.73942	-423.54123	1205.46861	1336.51480	-242.47740	1211.68077	1332.21652	-287.19902	1087.83234	1247.95333	-51.60346	963.97687	1083.15315	-111.80830	971.93716	1089.38231	-37.07052	977.96730	965.14042	-2.76407	976.26974	860.15542	7.14653	940.30857	867.02294	18.19424	1204.34507	1236.49932	-484.87835	1162.24206	1034.88722	-451.15159	1191.49418	1049.67830	-516.81094	1271.01780	984.98686	-520.61471	1348.78205	883.04787	-492.74835	1330.44723	866.76272	-514.86336	1080.21057	841.65097	-164.67315	1089.33427	846.17023	-353.77716	1102.78817	835.09092	-177.66017	1103.22005	851.60336	-337.75829	
